<svg version="1.1" viewBox="0.0 0.0 20.0 20.0" fill="none" stroke="none" stroke-linecap="square" stroke-miterlimit="10" xmlns:xlink="http://www.w3.org/1999/xlink" xmlns="http://www.w3.org/2000/svg">
  <clipPath id="g31090a5d714_0_8.0">
    <path d="m0 0l20.0 0l0 20.0l-20.0 0l0 -20.0z" clip-rule="nonzero"/>
  </clipPath>
    <path fill="#118ee1" d="m8.295973 10.255948l0.484375 0q0.078125 0 0.140625 -0.046875q0.0625 -0.046875 0.078125 -0.109375q0.015625 -0.078125 -0.03125 -0.125q-0.046875 -0.046875 -0.125 -0.046875l-0.484375 0q-0.09375 0 -0.15625 0.046875q-0.046875 0.046875 -0.0625 0.109375q-0.015625 0.0625 0.015625 0.125q0.046875 0.046875 0.140625 0.046875zm0.078125 -0.328125l0.484375 0q0.078125 0 0.140625 -0.046875q0.0625 -0.046875 0.0625 -0.109375q0.015625 -0.078125 -0.03125 -0.125q-0.03125 -0.046875 -0.109375 -0.046875l-0.484375 0q-0.09375 0 -0.15625 0.046875q-0.0625 0.046875 -0.078125 0.125q0 0.0625 0.03125 0.109375q0.046875 0.046875 0.140625 0.046875zm0.078125 -0.34375l0.484375 0q0.078125 0 0.140625 -0.046875q0.0625 -0.046875 0.0625 -0.109375q0.015625 -0.078125 -0.03125 -0.125q-0.046875 -0.046875 -0.125 -0.046875l-0.484375 0q-0.09375 0 -0.15625 0.046875q-0.046875 0.046875 -0.0625 0.125q0 0.0625 0.03125 0.109375q0.046875 0.046875 0.140625 0.046875zm0.0625 -0.328125l1.140625 0q0.09375 0 0.140625 -0.046875q0.0625 -0.046875 0.078125 -0.109375q0.015625 -0.0625 -0.03125 -0.109375q-0.03125 -0.0625 -0.125 -0.0625l-1.140625 0q-0.09375 0 -0.15625 0.046875q-0.046875 0.046875 -0.0625 0.109375q-0.015625 0.0625 0.015625 0.125q0.046875 0.046875 0.140625 0.046875zm0.0625 -0.328125l0.484375 0q0.078125 0 0.140625 -0.046875q0.078125 -0.046875 0.078125 -0.109375q0.015625 -0.078125 -0.03125 -0.125q-0.046875 -0.046875 -0.125 -0.046875l-0.484375 0q-0.09375 0 -0.15625 0.046875q-0.046875 0.046875 -0.0625 0.109375q0 0.0625 0.03125 0.125q0.03125 0.046875 0.125 0.046875zm0.078125 -0.328125l0.484375 0q0.078125 0 0.140625 -0.046875q0.0625 -0.046875 0.078125 -0.109375q0.015625 -0.078125 -0.03125 -0.125q-0.046875 -0.046875 -0.125 -0.046875l-0.484375 0q-0.09375 0 -0.15625 0.046875q-0.046875 0.046875 -0.0625 0.109375q-0.015625 0.0625 0.015625 0.125q0.046875 0.046875 0.140625 0.046875zm0.078125 -0.34375l1.8125 0q0.078125 0 0.140625 -0.046875q0.0625 -0.046875 0.0625 -0.109375q0.015625 -0.078125 -0.03125 -0.125q-0.046875 -0.046875 -0.125 -0.046875l-1.8125 0q-0.09375 0 -0.15625 0.046875q-0.046875 0.046875 -0.0625 0.125q0 0.0625 0.03125 0.109375q0.046875 0.046875 0.140625 0.046875z" fill-rule="nonzero"/>
</svg>
