<svg viewBox="0 0 384 384" fill="none" stroke-linecap="square" stroke-miterlimit="10" xmlns="http://www.w3.org/2000/svg">
  <clipPath id="a">
    <path d="M0 0h384v384H0z"/>
  </clipPath>
  <g clip-path="url(#a)">
    <path fill="#118ee1" d="M80.118 210.357H90.29q1.828 0 3.125-1 1.313-1.016 1.61-2.47.297-1.468-.672-2.609-.953-1.14-2.89-1.14H81.29q-1.828 0-3.14 1.015-1.313 1-1.61 2.47-.297 1.468.672 2.609.969 1.125 2.906 1.125m1.5-7H91.79q1.828 0 3.125-1 1.297-1.016 1.61-2.47.312-1.468-.672-2.609-.969-1.14-2.906-1.14H82.775q-1.828 0-3.125 1.015-1.297 1-1.625 2.47-.313 1.468.672 2.609.984 1.125 2.921 1.125m1.485-7h10.172q1.828 0 3.125-1 1.297-1.016 1.61-2.47.312-1.468-.673-2.609-.969-1.14-2.906-1.14H84.259q-1.828 0-3.125 1.015-1.297 1-1.625 2.47-.312 1.468.672 2.609.984 1.125 2.922 1.125m1.484-7h24.172q1.828 0 3.125-1 1.297-1.016 1.61-2.47.312-1.468-.672-2.609-.97-1.14-2.907-1.14H85.743q-1.828 0-3.125 1.015-1.296 1-1.625 2.47-.312 1.468.672 2.609.985 1.125 2.922 1.125m1.485-7h10.171q1.829 0 3.125-1 1.313-1.016 1.61-2.47.297-1.468-.672-2.609-.953-1.14-2.89-1.14H87.242q-1.828 0-3.14 1.015-1.313 1-1.61 2.47-.296 1.468.672 2.609.97 1.125 2.907 1.125m1.5-7h10.171q1.829 0 3.125-1 1.297-1.016 1.61-2.47.312-1.468-.672-2.609-.969-1.14-2.906-1.14H88.728q-1.828 0-3.125 1.015-1.297 1-1.625 2.47-.313 1.468.672 2.609.984 1.125 2.922 1.125m1.484-7h38.172q1.828 0 3.125-1 1.297-1.016 1.61-2.47.312-1.468-.673-2.609-.968-1.14-2.906-1.14H90.212q-1.828 0-3.125 1.015-1.297 1-1.625 2.47-.312 1.468.672 2.609.984 1.125 2.922 1.125m55.812 42h24.172q1.828 0 3.125-1 1.313-1.016 1.61-2.47.297-1.468-.672-2.609-.953-1.14-2.89-1.14H146.04q-1.828 0-3.14 1.015-1.313 1-1.61 2.47-.297 1.468.672 2.609.969 1.125 2.906 1.125m-5.5-7h10.172q1.828 0 3.125-1 1.297-1.016 1.61-2.47.312-1.468-.672-2.609-.969-1.14-2.906-1.14h-10.172q-1.828 0-3.125 1.015-1.297 1-1.625 2.47-.313 1.468.672 2.609.984 1.125 2.921 1.125m28 0h10.172q1.828 0 3.125-1 1.297-1.016 1.61-2.47.312-1.468-.672-2.609-.969-1.14-2.906-1.14h-10.172q-1.828 0-3.125 1.015-1.297 1-1.625 2.47-.313 1.468.672 2.609.984 1.125 2.921 1.125m-26.515-7h10.172q1.828 0 3.125-1 1.297-1.016 1.61-2.47.312-1.468-.673-2.609-.969-1.14-2.906-1.14h-10.172q-1.828 0-3.125 1.015-1.297 1-1.625 2.47-.312 1.468.672 2.609.984 1.125 2.922 1.125m28 0h10.172q1.828 0 3.125-1 1.297-1.016 1.61-2.47.312-1.468-.673-2.609-.969-1.14-2.906-1.14h-10.172q-1.828 0-3.125 1.015-1.297 1-1.625 2.47-.312 1.468.672 2.609.984 1.125 2.922 1.125m-26.516-7h10.172q1.828 0 3.125-1 1.297-1.016 1.61-2.47.312-1.468-.672-2.609-.97-1.14-2.907-1.14h-10.172q-1.828 0-3.125 1.015-1.296 1-1.625 2.47-.312 1.468.672 2.609.985 1.125 2.922 1.125m28 0h10.172q1.828 0 3.125-1 1.297-1.016 1.61-2.47.312-1.468-.672-2.609-.97-1.14-2.907-1.14h-10.172q-1.828 0-3.125 1.015-1.296 1-1.625 2.47-.312 1.468.672 2.609.985 1.125 2.922 1.125m-26.515-7h10.171q1.829 0 3.125-1 1.313-1.016 1.61-2.47.297-1.468-.672-2.609-.953-1.14-2.89-1.14h-10.173q-1.828 0-3.14 1.015-1.313 1-1.61 2.47-.296 1.468.672 2.609.97 1.125 2.907 1.125m28 0h10.171q1.829 0 3.125-1 1.313-1.016 1.61-2.47.297-1.468-.672-2.609-.953-1.14-2.89-1.14h-10.173q-1.828 0-3.14 1.015-1.313 1-1.61 2.47-.296 1.468.672 2.609.97 1.125 2.907 1.125m-26.5-7h10.171q1.829 0 3.125-1 1.297-1.016 1.61-2.47.312-1.468-.672-2.609-.969-1.14-2.906-1.14h-10.172q-1.828 0-3.125 1.015-1.297 1-1.625 2.47-.313 1.468.672 2.609.984 1.125 2.922 1.125m28 0h10.171q1.829 0 3.125-1 1.297-1.016 1.61-2.47.312-1.468-.672-2.609-.969-1.14-2.906-1.14h-10.172q-1.828 0-3.125 1.015-1.297 1-1.625 2.47-.313 1.468.672 2.609.984 1.125 2.922 1.125m-19.516-7h24.172q1.828 0 3.125-1 1.297-1.016 1.61-2.47.312-1.468-.673-2.609-.968-1.14-2.906-1.14h-24.172q-1.828 0-3.125 1.015-1.297 1-1.625 2.47-.312 1.468.672 2.609.984 1.125 2.922 1.125m41.812 42h10.172q1.828 0 3.125-1 1.313-1.016 1.61-2.47.297-1.468-.672-2.609-.953-1.14-2.89-1.14H196.79q-1.828 0-3.14 1.015-1.313 1-1.61 2.47-.297 1.468.672 2.609.969 1.125 2.906 1.125m28 0h10.172q1.828 0 3.125-1 1.313-1.016 1.61-2.47.297-1.468-.672-2.609-.953-1.14-2.89-1.14H224.79q-1.828 0-3.14 1.015-1.313 1-1.61 2.47-.297 1.468.672 2.609.969 1.125 2.906 1.125m-26.5-7h10.172q1.828 0 3.125-1 1.297-1.016 1.61-2.47.312-1.468-.672-2.609-.969-1.14-2.906-1.14h-10.172q-1.828 0-3.125 1.015-1.297 1-1.625 2.47-.313 1.468.672 2.609.984 1.125 2.921 1.125m21 0h10.172q1.828 0 3.125-1 1.297-1.016 1.61-2.47.312-1.468-.672-2.609-.969-1.14-2.906-1.14h-10.172q-1.828 0-3.125 1.015-1.297 1-1.625 2.47-.313 1.468.672 2.609.984 1.125 2.921 1.125m-19.515-7h24.172q1.828 0 3.125-1 1.297-1.016 1.61-2.47.312-1.468-.673-2.609-.969-1.14-2.906-1.14h-24.172q-1.828 0-3.125 1.015-1.297 1-1.625 2.47-.312 1.468.672 2.609.984 1.125 2.922 1.125m1.484-7h31.172q1.828 0 3.125-1 1.297-1.016 1.61-2.47.312-1.468-.672-2.609-.97-1.14-2.907-1.14h-31.172q-1.828 0-3.125 1.015-1.296 1-1.625 2.47-.312 1.468.672 2.609.985 1.125 2.922 1.125m1.485-7h10.171q1.829 0 3.125-1 1.313-1.016 1.61-2.47.297-1.468-.672-2.609-.953-1.14-2.89-1.14h-10.173q-1.828 0-3.14 1.015-1.313 1-1.61 2.47-.296 1.468.672 2.609.97 1.125 2.907 1.125m28 0h10.171q1.829 0 3.125-1 1.313-1.016 1.61-2.47.297-1.468-.672-2.609-.953-1.14-2.89-1.14h-10.173q-1.828 0-3.14 1.015-1.313 1-1.61 2.47-.296 1.468.672 2.609.97 1.125 2.907 1.125m-26.5-7h10.171q1.829 0 3.125-1 1.297-1.016 1.61-2.47.312-1.468-.672-2.609-.969-1.14-2.906-1.14h-10.172q-1.828 0-3.125 1.015-1.297 1-1.625 2.47-.313 1.468.672 2.609.984 1.125 2.922 1.125m28 0h10.171q1.829 0 3.125-1 1.297-1.016 1.61-2.47.312-1.468-.672-2.609-.969-1.14-2.906-1.14h-10.172q-1.828 0-3.125 1.015-1.297 1-1.625 2.47-.313 1.468.672 2.609.984 1.125 2.922 1.125m-26.516-7h31.172q1.828 0 3.125-1 1.297-1.016 1.61-2.47.312-1.468-.673-2.609-.968-1.14-2.906-1.14h-31.172q-1.828 0-3.125 1.015-1.297 1-1.625 2.47-.312 1.468.672 2.609.984 1.125 2.922 1.125m48.812 42h10.172q1.828 0 3.125-1 1.313-1.016 1.61-2.47.297-1.468-.672-2.609-.953-1.14-2.89-1.14H254.54q-1.828 0-3.14 1.015-1.313 1-1.61 2.47-.297 1.468.672 2.609.969 1.125 2.906 1.125m28 0h10.172q1.828 0 3.125-1 1.313-1.016 1.61-2.47.297-1.468-.672-2.609-.953-1.14-2.89-1.14H282.54q-1.828 0-3.14 1.015-1.313 1-1.61 2.47-.297 1.468.672 2.609.969 1.125 2.906 1.125m-26.5-7h10.172q1.828 0 3.125-1 1.297-1.016 1.61-2.47.312-1.468-.672-2.609-.969-1.14-2.906-1.14h-10.172q-1.828 0-3.125 1.015-1.297 1-1.625 2.47-.313 1.468.672 2.609.984 1.125 2.921 1.125m21 0h10.172q1.828 0 3.125-1 1.297-1.016 1.61-2.47.312-1.468-.672-2.609-.969-1.14-2.906-1.14h-10.172q-1.828 0-3.125 1.015-1.297 1-1.625 2.47-.313 1.468.672 2.609.984 1.125 2.921 1.125m-19.515-7h24.172q1.828 0 3.125-1 1.297-1.016 1.61-2.47.312-1.468-.673-2.609-.969-1.14-2.906-1.14h-24.172q-1.828 0-3.125 1.015-1.297 1-1.625 2.47-.312 1.468.672 2.609.984 1.125 2.922 1.125m1.484-7h17.172q1.828 0 3.125-1 1.297-1.016 1.61-2.47.312-1.468-.672-2.609-.97-1.14-2.907-1.14h-17.172q-1.828 0-3.125 1.015-1.296 1-1.625 2.47-.312 1.468.672 2.609.985 1.125 2.922 1.125m1.485-7h24.171q1.829 0 3.125-1 1.313-1.016 1.61-2.47.297-1.468-.672-2.609-.953-1.14-2.89-1.14h-24.173q-1.828 0-3.14 1.015-1.313 1-1.61 2.47-.296 1.468.672 2.609.97 1.125 2.907 1.125m1.5-7h10.171q1.829 0 3.125-1 1.297-1.016 1.61-2.47.312-1.468-.672-2.609-.969-1.14-2.906-1.14h-10.172q-1.828 0-3.125 1.015-1.297 1-1.625 2.47-.313 1.468.672 2.609.984 1.125 2.922 1.125m21 0h10.171q1.829 0 3.125-1 1.297-1.016 1.61-2.47.312-1.468-.672-2.609-.969-1.14-2.906-1.14h-10.172q-1.828 0-3.125 1.015-1.297 1-1.625 2.47-.313 1.468.672 2.609.984 1.125 2.922 1.125m-19.516-7h10.172q1.828 0 3.125-1 1.297-1.016 1.61-2.47.312-1.468-.673-2.609-.968-1.14-2.906-1.14h-10.172q-1.828 0-3.125 1.015-1.297 1-1.625 2.47-.312 1.468.672 2.609.984 1.125 2.922 1.125m28 0h10.172q1.828 0 3.125-1 1.297-1.016 1.61-2.47.312-1.468-.673-2.609-.968-1.14-2.906-1.14h-10.172q-1.828 0-3.125 1.015-1.297 1-1.625 2.47-.312 1.468.672 2.609.984 1.125 2.922 1.125"/>
  </g>
</svg>
